{
  "accessors": [
    {
      "bufferView": 2,
      "componentType": 5126,
      "count": 3902,
      "max": [
        86.111717224121094,
        35.596153259277344,
        57.625373840332031
      ],
      "min": [
        -65.182205200195312,
        -54.336612701416016,
        -126.703857421875
      ],
      "type": "VEC3"
    },
    {
      "bufferView": 2,
      "byteOffset": 46824,
      "componentType": 5126,
      "count": 3902,
      "max": [
        0.99941015243530273,
        0.99975907802581787,
        0.99984312057495117
      ],
      "min": [
        -0.99934953451156616,
        -0.99983161687850952,
        -1
      ],
      "type": "VEC3"
    },
    {
      "bufferView": 3,
      "componentType": 5126,
      "count": 3902,
      "max": [
        1,
        0.99999892711639404,
        0.99973583221435547,
        1
      ],
      "min": [
        -0.99999988079071045,
        -0.99995362758636475,
        -0.9951854944229126,
        -1
      ],
      "type": "VEC4"
    },
    {
      "bufferView": 1,
      "componentType": 5126,
      "count": 3902,
      "max": [
        1.9924743175506592,
        0.99619066715240479
      ],
      "min": [
        0.0070914626121520996,
        0.0075594335794448853
      ],
      "type": "VEC2"
    },
    {
      "bufferView": 0,
      "componentType": 5125,
      "count": 9834,
      "max": [
        3901
      ],
      "min": [
        0
      ],
      "type": "SCALAR"
    },
    {
      "bufferView": 2,
      "byteOffset": 93648,
      "componentType": 5126,
      "count": 55,
      "max": [
        90.962295532226562,
        89.580375671386719,
        18.664749145507812
      ],
      "min": [
        -90.962295532226562,
        -89.58038330078125,
        18.664749145507812
      ],
      "type": "VEC3"
    },
    {
      "bufferView": 2,
      "byteOffset": 94308,
      "componentType": 5126,
      "count": 55,
      "max": [
        0,
        0,
        1
      ],
      "min": [
        0,
        0,
        1
      ],
      "type": "VEC3"
    },
    {
      "bufferView": 3,
      "byteOffset": 62432,
      "componentType": 5126,
      "count": 55,
      "max": [
        1,
        4.7546575387968915e-07,
        0,
        1
      ],
      "min": [
        1,
        4.9055991269142396e-08,
        0,
        1
      ],
      "type": "VEC4"
    },
    {
      "bufferView": 1,
      "byteOffset": 31216,
      "componentType": 5126,
      "count": 55,
      "max": [
        1,
        0.99999994039535522
      ],
      "min": [
        2.9802322387695312e-08,
        2.9802322387695312e-08
      ],
      "type": "VEC2"
    },
    {
      "bufferView": 0,
      "byteOffset": 39336,
      "componentType": 5125,
      "count": 270,
      "max": [
        54
      ],
      "min": [
        0
      ],
      "type": "SCALAR"
    }
  ],
  "asset": {
    "extras": {
      "author": "Tristan (https://sketchfab.com/tristanclarysse)",
      "license": "CC-BY-4.0 (http://creativecommons.org/licenses/by/4.0/)",
      "source": "https://sketchfab.com/models/81d7b8e70ed045e59d67519d099f1a58",
      "title": "Batsy A Pose A"
    },
    "generator": "Sketchfab-3.19.6",
    "version": "2.0"
  },
  "bufferViews": [
    {
      "buffer": 0,
      "byteLength": 40416,
      "byteOffset": 0,
      "name": "floatBufferViews",
      "target": 34963
    },
    {
      "buffer": 0,
      "byteLength": 31656,
      "byteOffset": 40416,
      "byteStride": 8,
      "name": "floatBufferViews",
      "target": 34962
    },
    {
      "buffer": 0,
      "byteLength": 94968,
      "byteOffset": 72072,
      "byteStride": 12,
      "name": "floatBufferViews",
      "target": 34962
    },
    {
      "buffer": 0,
      "byteLength": 63312,
      "byteOffset": 167040,
      "byteStride": 16,
      "name": "floatBufferViews",
      "target": 34962
    }
  ],
  "buffers": [
    {
      "byteLength": 230352,
      "uri": "scene.bin"
    }
  ],
  "images": [
    {
      "uri": "textures/Platform_A_baseColor.png"
    },
    {
      "uri": "textures/Batsy_A_Pose_A_baseColor.png"
    }
  ],
  "materials": [
    {
      "doubleSided": true,
      "emissiveFactor": [
        0,
        0,
        0
      ],
      "name": "Batsy_A_Pose_A",
      "pbrMetallicRoughness": {
        "baseColorFactor": [
          1,
          1,
          1,
          1
        ],
        "baseColorTexture": {
          "index": 1,
          "texCoord": 0
        },
        "metallicFactor": 0,
        "roughnessFactor": 0.59999999999999998
      }
    },
    {
      "alphaMode": "BLEND",
      "doubleSided": true,
      "name": "Platform_A",
      "pbrMetallicRoughness": {
        "baseColorFactor": [
          0.10554523975624645,
          0.092559019317929841,
          0.069792259838498752,
          0.99828506100000003
        ],
        "baseColorTexture": {
          "index": 0,
          "texCoord": 0
        },
        "metallicFactor": 0,
        "roughnessFactor": 0.59999999999999998
      }
    }
  ],
  "meshes": [
    {
      "name": "Batsy_A_Pose_A_Batsy_A_Pose_A_0",
      "primitives": [
        {
          "attributes": {
            "NORMAL": 1,
            "POSITION": 0,
            "TANGENT": 2,
            "TEXCOORD_0": 3
          },
          "indices": 4,
          "material": 0,
          "mode": 4
        }
      ]
    },
    {
      "name": "Platform_A_Platform_A_0",
      "primitives": [
        {
          "attributes": {
            "NORMAL": 6,
            "POSITION": 5,
            "TANGENT": 7,
            "TEXCOORD_0": 8
          },
          "indices": 9,
          "material": 1,
          "mode": 4
        }
      ]
    }
  ],
  "nodes": [
    {
      "children": [
        1
      ],
      "name": "RootNode (gltf orientation matrix)",
      "rotation": [
        -0.70710678118654746,
        -0,
        -0,
        0.70710678118654757
      ]
    },
    {
      "children": [
        2
      ],
      "name": "RootNode (model correction matrix)"
    },
    {
      "children": [
        3
      ],
      "matrix": [
        1,
        0,
        0,
        0,
        0,
        0,
        1,
        0,
        0,
        -1,
        0,
        0,
        0,
        0,
        0,
        1
      ],
      "name": "b9e09ef0d4f7403dabb006e21d06b271.fbx"
    },
    {
      "children": [
        4,
        7
      ],
      "name": "RootNode"
    },
    {
      "children": [
        5
      ],
      "matrix": [
        1,
        0,
        0,
        0,
        0,
        2.2204460492503131e-16,
        -1,
        0,
        0,
        1,
        2.2204460492503131e-16,
        0,
        0,
        0,
        0,
        1
      ],
      "name": "Batsy_A_Pose_A"
    },
    {
      "children": [
        6
      ],
      "matrix": [
        1,
        0,
        -0,
        0,
        0,
        1,
        0,
        0,
        0,
        0,
        1,
        0,
        0,
        12.621445655822754,
        126.67971801757812,
        1
      ],
      "name": ""
    },
    {
      "mesh": 0,
      "name": "Batsy_A_Pose_A_Batsy_A_Pose_A_0"
    },
    {
      "children": [
        8
      ],
      "matrix": [
        1,
        0,
        0,
        0,
        0,
        2.2204460492503131e-16,
        -1,
        0,
        0,
        1,
        2.2204460492503131e-16,
        0,
        0,
        -18.666244506835938,
        0,
        1
      ],
      "name": "Platform_A"
    },
    {
      "mesh": 1,
      "name": "Platform_A_Platform_A_0"
    }
  ],
  "samplers": [
    {
      "magFilter": 9729,
      "minFilter": 9987,
      "wrapS": 10497,
      "wrapT": 10497
    }
  ],
  "scene": 0,
  "scenes": [
    {
      "name": "OSG_Scene",
      "nodes": [
        0
      ]
    }
  ],
  "textures": [
    {
      "sampler": 0,
      "source": 0
    },
    {
      "sampler": 0,
      "source": 1
    }
  ]
}

